<?xml version="1.0"?>
<svg width="200" height="200" xmlns="http://www.w3.org/2000/svg" xmlns:svg="http://www.w3.org/2000/svg">
 <g class="layer">
  <path d="m135,-11.5c12.6,7.9 23.6,18.4 31.8,31.6c8.2,13.3 13.6,29.2 9.5,42.3c-4.2,13.1 -17.8,23.3 -29.7,32.9c-11.9,9.5 -21.9,18.3 -33.1,20.5c-11.3,2.2 -23.8,-2.3 -32.5,-9.5c-8.6,-7.2 -13.5,-17.1 -22.1,-25c-8.7,-7.9 -21,-13.7 -30.1,-24.8c-9.1,-11 -15,-27.4 -11.4,-41.3c3.5,-13.9 16.4,-25.4 30.7,-32.4c14.4,-7.1 30.1,-9.7 45.1,-8.5c15,1.3 29.2,6.4 41.8,14.2z" fill="#CD2E3A" id="svg_1"/>
  <path d="m87.98,76.31c12.6,7.9 23.6,18.4 31.8,31.6c8.2,13.3 13.6,29.2 9.5,42.3c-4.2,13.1 -17.8,23.3 -29.7,32.9c-11.9,9.5 -21.9,18.3 -33.1,20.5c-11.3,2.2 -23.8,-2.3 -32.5,-9.5c-8.6,-7.2 -13.5,-17.1 -22.1,-25c-8.7,-7.9 -21,-13.7 -30.1,-24.8c-9.1,-11 -15,-27.4 -11.4,-41.3c3.5,-13.9 16.4,-25.4 30.7,-32.4c14.4,-7.1 30.1,-9.7 45.1,-8.5c15,1.3 29.2,6.4 41.8,14.2z" fill="#0047a0" id="svg_3" transform="rotate(179.201, 50, 133)"/>
 </g>
</svg>