<svg id="visual" viewBox="0 0 900 600" width="900" height="600" xmlns="http://www.w3.org/2000/svg" xmlns:xlink="http://www.w3.org/1999/xlink" version="1.1"><rect x="0" y="0" width="900" height="600" fill="#fff"></rect><defs><linearGradient id="grad1_0" x1="33.3%" y1="0%" x2="100%" y2="100%"><stop offset="20%" stop-color="#ffffff" stop-opacity="1"></stop><stop offset="80%" stop-color="#ffffff" stop-opacity="1"></stop></linearGradient></defs><defs><linearGradient id="grad2_0" x1="0%" y1="0%" x2="66.7%" y2="100%"><stop offset="20%" stop-color="#ffffff" stop-opacity="1"></stop><stop offset="80%" stop-color="#ffffff" stop-opacity="1"></stop></linearGradient></defs><g transform="translate(900, 0)"><path d="M0 297.5C-31.1 295.2 -62.2 293 -91.9 282.9C-121.6 272.8 -150 254.8 -167.5 230.6C-185.1 206.4 -191.8 175.9 -210.3 152.8C-228.9 129.7 -259.3 113.9 -275.8 89.6C-292.3 65.4 -294.9 32.7 -297.5 0L0 0Z" fill="#CD2E3A"></path></g><g transform="translate(0, 600)"><path d="M0 -297.5C29.8 -292.8 59.5 -288.2 91.5 -281.5C123.4 -274.8 157.5 -266.1 174.8 -240.6C192.1 -215.2 192.6 -172.9 196.6 -142.8C200.6 -112.8 208 -95 225.4 -73.2C242.8 -51.5 270.1 -25.7 297.5 0L0 0Z" fill="#0047a0"></path></g></svg>