<svg id="visual" viewBox="0 0 900 600" width="900" height="600" xmlns="http://www.w3.org/2000/svg" xmlns:xlink="http://www.w3.org/1999/xlink" version="1.1"><rect x="0" y="0" width="900" height="600" fill="#fff"></rect><defs><linearGradient id="grad1_0" x1="33.3%" y1="0%" x2="100%" y2="100%"><stop offset="20%" stop-color="#ffffff" stop-opacity="1"></stop><stop offset="80%" stop-color="#ffffff" stop-opacity="1"></stop></linearGradient></defs><defs><linearGradient id="grad2_0" x1="0%" y1="0%" x2="66.7%" y2="100%"><stop offset="20%" stop-color="#ffffff" stop-opacity="1"></stop><stop offset="80%" stop-color="#ffffff" stop-opacity="1"></stop></linearGradient></defs><g transform="translate(900, 0)"><path d="M0 351.5C-42 356.1 -84 360.7 -108.6 334.3C-133.2 308 -140.5 250.6 -161.6 222.5C-182.8 194.4 -218 195.4 -250 181.6C-282 167.8 -310.8 139.1 -327.2 106.3C-343.6 73.5 -347.5 36.8 -351.5 0L0 0Z" fill="#CD2E3A"></path></g><g transform="translate(0, 600)"><path d="M0 -351.5C38.1 -343 76.1 -334.5 100.7 -310C125.3 -285.6 136.4 -245.2 165.2 -227.3C193.9 -209.5 240.2 -214.2 272.6 -198.1C305 -182 323.5 -145.1 334.3 -108.6C345.2 -72.2 348.4 -36.1 351.5 0L0 0Z" fill="#0047a0"></path></g></svg>