<svg id="visual" width="675" height="600" xmlns="http://www.w3.org/2000/svg" xmlns:xlink="http://www.w3.org/1999/xlink" version="1.1"><path d="M0 583L28.2 586.2C56.3 589.3 112.7 595.7 169 577.7C225.3 559.7 281.7 517.3 337.8 515.3C394 513.3 450 551.7 506.2 555.7C562.3 559.7 618.7 529.3 646.8 514.2L675 499L675 0L646.8 0C618.7 0 562.3 0 506.2 0C450 0 394 0 337.8 0C281.7 0 225.3 0 169 0C112.7 0 56.3 0 28.2 0L0 0Z" fill="#0047a0"></path><path d="M0 320L28.2 310.3C56.3 300.7 112.7 281.3 169 274.5C225.3 267.7 281.7 273.3 337.8 284.8C394 296.3 450 313.7 506.2 316.5C562.3 319.3 618.7 307.7 646.8 301.8L675 296L675 0L646.8 0C618.7 0 562.3 0 506.2 0C450 0 394 0 337.8 0C281.7 0 225.3 0 169 0C112.7 0 56.3 0 28.2 0L0 0Z" fill="#cd2e3a"></path></svg>