<?xml version="1.0" standalone="no"?>
<svg viewBox="0 0 200 200" xmlns="http://www.w3.org/2000/svg">
  <path fill="#CD2E3A" d="M41,-63.5C53.6,-55.6,64.6,-45.1,72.8,-31.9C81,-18.6,86.4,-2.7,82.3,10.4C78.1,23.5,64.5,33.7,52.6,43.3C40.7,52.8,30.7,61.6,19.5,63.8C8.2,66,-4.3,61.5,-13,54.3C-21.6,47.1,-26.5,37.2,-35.1,29.3C-43.8,21.4,-56.1,15.6,-65.2,4.5C-74.3,-6.5,-80.2,-22.9,-76.6,-36.8C-73.1,-50.7,-60.2,-62.2,-45.9,-69.2C-31.5,-76.3,-15.8,-78.9,-0.8,-77.7C14.2,-76.4,28.4,-71.3,41,-63.5Z" transform="translate(100 100)" />
</svg>
