<svg id="visual"  width="900" height="600" xmlns="http://www.w3.org/2000/svg" xmlns:xlink="http://www.w3.org/1999/xlink" version="1.1"><path d="M0 386L30 382.2C60 378.3 120 370.7 180 380C240 389.3 300 415.7 360 414C420 412.3 480 382.7 540 379.8C600 377 660 401 720 396.3C780 391.7 840 358.3 870 341.7L900 325L900 0L870 0C840 0 780 0 720 0C660 0 600 0 540 0C480 0 420 0 360 0C300 0 240 0 180 0C120 0 60 0 30 0L0 0Z" fill="#0047a0"></path><path d="M0 130L30 138C60 146 120 162 180 190C240 218 300 258 360 261.7C420 265.3 480 232.7 540 202.7C600 172.7 660 145.3 720 130.8C780 116.3 840 114.7 870 113.8L900 113L900 0L870 0C840 0 780 0 720 0C660 0 600 0 540 0C480 0 420 0 360 0C300 0 240 0 180 0C120 0 60 0 30 0L0 0Z" fill="#cd2e3a"></path></svg>